<svg width="16" height="16" viewBox="0 0 16 16" fill="none" xmlns="http://www.w3.org/2000/svg">
<path d="M7.99998 6.66663C7.47256 6.66663 6.95699 6.82302 6.51846 7.11604C6.07993 7.40906 5.73814 7.82553 5.5363 8.3128C5.33447 8.80007 5.28166 9.33625 5.38455 9.85353C5.48745 10.3708 5.74142 10.846 6.11436 11.2189C6.4873 11.5918 6.96246 11.8458 7.47974 11.9487C7.99702 12.0516 8.5332 11.9988 9.02047 11.797C9.50774 11.5951 9.92421 11.2533 10.2172 10.8148C10.5102 10.3763 10.6666 9.86071 10.6666 9.33329C10.6666 8.62605 10.3857 7.94777 9.8856 7.44767C9.3855 6.94758 8.70722 6.66663 7.99998 6.66663ZM7.99998 10.6666C7.73627 10.6666 7.47848 10.5884 7.25922 10.4419C7.03995 10.2954 6.86906 10.0872 6.76814 9.84353C6.66722 9.5999 6.64082 9.33181 6.69227 9.07317C6.74371 8.81453 6.8707 8.57695 7.05717 8.39048C7.24364 8.20401 7.48122 8.07702 7.73986 8.02558C7.9985 7.97413 8.26659 8.00054 8.51022 8.10145C8.75386 8.20237 8.9621 8.37327 9.1086 8.59253C9.25511 8.8118 9.33331 9.06958 9.33331 9.33329C9.33331 9.68691 9.19284 10.0261 8.94279 10.2761C8.69274 10.5261 8.3536 10.6666 7.99998 10.6666Z" fill="white"/>
<path d="M15.024 2.74801L13.252 0.976012C12.9432 0.665574 12.576 0.419466 12.1714 0.251934C11.7669 0.084403 11.3332 -0.00122304 10.8953 1.31975e-05H3.33333C2.4496 0.00107177 1.60237 0.352601 0.977479 0.977492C0.352588 1.60238 0.00105857 2.44961 0 3.33334L0 12.6667C0.00105857 13.5504 0.352588 14.3976 0.977479 15.0225C1.60237 15.6474 2.4496 15.9989 3.33333 16H12.6667C13.5504 15.9989 14.3976 15.6474 15.0225 15.0225C15.6474 14.3976 15.9989 13.5504 16 12.6667V5.10468C16.0012 4.66683 15.9156 4.2331 15.7481 3.82857C15.5805 3.42405 15.3344 3.05677 15.024 2.74801ZM11.3333 1.38668V2.00001C11.3333 2.53044 11.1226 3.03915 10.7475 3.41422C10.3725 3.7893 9.86376 4.00001 9.33333 4.00001H6.66666C6.13623 4.00001 5.62752 3.7893 5.25245 3.41422C4.87738 3.03915 4.66666 2.53044 4.66666 2.00001V1.33335H10.8953C11.0429 1.33465 11.1898 1.35254 11.3333 1.38668ZM14.6667 12.6667C14.6667 13.1971 14.4559 13.7058 14.0809 14.0809C13.7058 14.456 13.1971 14.6667 12.6667 14.6667H3.33333C2.8029 14.6667 2.29419 14.456 1.91912 14.0809C1.54405 13.7058 1.33333 13.1971 1.33333 12.6667V3.33334C1.33333 2.80291 1.54405 2.2942 1.91912 1.91913C2.29419 1.54406 2.8029 1.33335 3.33333 1.33335V2.00001C3.33439 2.88374 3.68592 3.73097 4.31081 4.35586C4.9357 4.98075 5.78293 5.33228 6.66666 5.33334H9.33333C10.1717 5.33074 10.9781 5.01178 11.5914 4.44025C12.2047 3.86872 12.5797 3.08674 12.6413 2.25068L14.0813 3.69068C14.4549 4.06659 14.6653 4.57467 14.6667 5.10468V12.6667Z" fill="white"/>
</svg>
