<svg width="18" height="16" viewBox="0 0 18 16" fill="none" xmlns="http://www.w3.org/2000/svg">
<path d="M13.3949 5.52291C13.9585 6.08655 13.9585 7.00436 13.3949 7.568L10.9956 9.96727L9.96727 8.93891L12.3658 6.53964L9.96727 4.152L10.9956 3.12364L13.3949 5.52291ZM6.45818 3.12364L4.05891 5.52291C3.496 6.08655 3.496 7.00436 4.05891 7.568L6.45745 9.96727L7.48582 8.93891L5.08727 6.55127L7.48582 4.152L6.45745 3.12364H6.45818ZM9.45455 13.0909V14.5455H13.0909V16H4.36364V14.5455H8V13.0909H0V2.18182C0 0.978909 0.978909 0 2.18182 0H15.2727C16.4756 0 17.4545 0.978909 17.4545 2.18182V13.0909H9.45455ZM1.45455 11.6364H16V2.18182C16 1.78036 15.6735 1.45455 15.2727 1.45455H2.18182C1.78109 1.45455 1.45455 1.78036 1.45455 2.18182V11.6364Z" fill="white"/>
</svg>
