<svg width="20" height="20" viewBox="0 0 20 20" fill="none" xmlns="http://www.w3.org/2000/svg">
<path d="M18.75 12.9167C18.4185 12.9167 18.1006 13.0484 17.8661 13.2829C17.6317 13.5173 17.5 13.8352 17.5 14.1667V15.4167C17.5 15.9693 17.2805 16.4992 16.8898 16.8899C16.4991 17.2806 15.9692 17.5001 15.4167 17.5001H14.1667C13.8352 17.5001 13.5172 17.6318 13.2828 17.8662C13.0484 18.1006 12.9167 18.4186 12.9167 18.7501C12.9167 19.0816 13.0484 19.3995 13.2828 19.634C13.5172 19.8684 13.8352 20.0001 14.1667 20.0001H15.4167C16.6319 19.9988 17.7969 19.5154 18.6561 18.6562C19.5154 17.7969 19.9987 16.6319 20 15.4167V14.1667C20 13.8352 19.8683 13.5173 19.6339 13.2829C19.3995 13.0484 19.0815 12.9167 18.75 12.9167Z" fill="white"/>
<path d="M5.83333 0H4.58333C3.36816 0.00132348 2.20314 0.484634 1.34389 1.34389C0.484634 2.20314 0.00132347 3.36816 0 4.58333L0 5.83333C0 6.16486 0.131696 6.4828 0.366117 6.71722C0.600537 6.95164 0.91848 7.08333 1.25 7.08333C1.58152 7.08333 1.89946 6.95164 2.13388 6.71722C2.3683 6.4828 2.5 6.16486 2.5 5.83333V4.58333C2.5 4.0308 2.71949 3.5009 3.11019 3.11019C3.5009 2.71949 4.0308 2.5 4.58333 2.5H5.83333C6.16485 2.5 6.4828 2.3683 6.71722 2.13388C6.95164 1.89946 7.08333 1.58152 7.08333 1.25C7.08333 0.91848 6.95164 0.600537 6.71722 0.366117C6.4828 0.131696 6.16485 0 5.83333 0Z" fill="white"/>
<path d="M5.83333 17.5001H4.58333C4.0308 17.5001 3.5009 17.2806 3.11019 16.8899C2.71949 16.4992 2.5 15.9693 2.5 15.4167V14.1667C2.5 13.8352 2.3683 13.5173 2.13388 13.2829C1.89946 13.0484 1.58152 12.9167 1.25 12.9167C0.91848 12.9167 0.600537 13.0484 0.366117 13.2829C0.131696 13.5173 0 13.8352 0 14.1667L0 15.4167C0.00132347 16.6319 0.484634 17.7969 1.34389 18.6562C2.20314 19.5154 3.36816 19.9988 4.58333 20.0001H5.83333C6.16485 20.0001 6.4828 19.8684 6.71722 19.634C6.95164 19.3995 7.08333 19.0816 7.08333 18.7501C7.08333 18.4186 6.95164 18.1006 6.71722 17.8662C6.4828 17.6318 6.16485 17.5001 5.83333 17.5001Z" fill="white"/>
<path d="M15.4167 0H14.1667C13.8352 0 13.5172 0.131696 13.2828 0.366117C13.0484 0.600537 12.9167 0.91848 12.9167 1.25C12.9167 1.58152 13.0484 1.89946 13.2828 2.13388C13.5172 2.3683 13.8352 2.5 14.1667 2.5H15.4167C15.9692 2.5 16.4991 2.71949 16.8898 3.11019C17.2805 3.5009 17.5 4.0308 17.5 4.58333V5.83333C17.5 6.16486 17.6317 6.4828 17.8661 6.71722C18.1006 6.95164 18.4185 7.08333 18.75 7.08333C19.0815 7.08333 19.3995 6.95164 19.6339 6.71722C19.8683 6.4828 20 6.16486 20 5.83333V4.58333C19.9987 3.36816 19.5154 2.20314 18.6561 1.34389C17.7969 0.484634 16.6319 0.00132348 15.4167 0Z" fill="white"/>
</svg>
